#!OML:ASF H:\Martial Arts Walks\Project 1\Capture day 1\Session 1\male.ASF
:FULLY-SPECIFIED
:DEGREES
1988
root -3.71388 11.3437 -16.6233 -157.05 79.3265 -165.861
lowerback 17.0789 6.69802 1.38799
upperback -3.36629 8.99411 -2.35252
thorax -12.6934 3.98356 -5.84227
lowerneck -0.908596 12.1485 4.27074
upperneck 8.63022 16.5024 -2.36179
head 3.56821 8.28217 -0.84631
rclavicle 4.37326e-015 1.98785e-014
rhumerus -23.1721 56.9991 -86.8236
rradius 113.491
rwrist 10.2759
rhand -22.8544 -24.4071
rfingers 7.12502
rthumb 3.58367 -54.3567
lclavicle 4.37326e-015 1.98785e-014
lhumerus -10.3739 14.363 60.6456
lradius 111.157
lwrist 41.0225
lhand -30.5194 14.337
lfingers 7.12502
lthumb -3.81903 44.2825
rfemur -47.8404 -41.4225 -7.09455
rtibia 98.2873
rfoot -36.7278 -3.53981
rtoes -35.6381
lfemur -68.5104 34.2238 2.86645
ltibia 98.9507
lfoot -36.7828 -8.60165
ltoes -23.746
1989
root -3.71507 11.3157 -16.6339 -156.835 79.318 -165.714
lowerback 17.087 6.69107 1.40295
upperback -3.37707 8.98923 -2.34312
thorax -12.7104 3.97939 -5.84122
lowerneck -0.950845 12.1627 4.33629
upperneck 8.65678 16.5263 -2.44752
head 3.60205 8.29225 -0.876931
rclavicle 9.16894e-014 -1.55052e-014
rhumerus -23.1366 57.0151 -86.7463
rradius 113.542
rwrist 10.1746
rhand -22.7592 -24.4499
rfingers 7.12502
rthumb 3.67559 -54.398
lclavicle 9.16894e-014 -1.55052e-014
lhumerus -10.3902 14.3496 60.7197
lradius 111.27
lwrist 41.3937
lhand -30.4792 14.4693
lfingers 7.12502
lthumb -3.78019 44.4156
rfemur -48.0105 -41.6248 -7.15009
rtibia 98.4988
rfoot -36.7951 -3.45527
rtoes -35.8091
lfemur -68.831 34.3087 2.82439
ltibia 99.2858
lfoot -36.8579 -8.51813
ltoes -23.8642
1990
root -3.71878 11.286 -16.6467 -156.22 79.2828 -165.107
lowerback 17.1758 6.64697 1.58285
upperback -3.37832 8.9721 -2.3219
thorax -12.7409 3.95625 -5.92396
lowerneck -0.996461 12.189 4.36514
upperneck 8.68511 16.5622 -2.47562
head 3.62788 8.30901 -0.883523
rclavicle 5.93372e-014 7.55382e-015
rhumerus -23.0247 57.0978 -86.6652
rradius 113.519
rwrist 10.0595
rhand -22.6404 -24.5236
rfingers 7.12502
rthumb 3.79038 -54.4696
lclavicle 5.93372e-014 7.55382e-015
lhumerus -10.4238 14.3791 60.7548
lradius 111.31
lwrist 41.6368
lhand -30.4489 14.354
lfingers 7.12502
lthumb -3.75098 44.3008
rfemur -48.1075 -41.7988 -7.16345
rtibia 98.6986
rfoot -36.8726 -3.22299
rtoes -35.8261
lfemur -69.1153 34.4253 2.90459
ltibia 99.6398
lfoot -36.9271 -8.46257
ltoes -23.9341
1991
root -3.71877 11.2588 -16.6537 -155.959 79.2978 -164.941
lowerback 17.1446 6.67738 1.54823
upperback -3.39475 9.00733 -2.30318
thorax -12.747 3.97578 -5.89082
lowerneck -0.990088 12.1812 4.32358
upperneck 8.63562 16.549 -2.46722
head 3.60361 8.30124 -0.878021
rclavicle -9.19379e-015 4.77083e-014
rhumerus -22.9655 57.0737 -86.5189
rradius 113.549
rwrist 9.94495
rhand -22.417 -24.5599
rfingers 7.12502
rthumb 4.0061 -54.502
lclavicle -9.19379e-015 4.77083e-014
lhumerus -10.4187 14.3287 60.8965
lradius 111.35
lwrist 41.6523
lhand -30.3959 14.2942
lfingers 7.12502
lthumb -3.69973 44.2418
rfemur -48.3434 -41.9588 -7.15827
rtibia 98.9027
rfoot -36.9148 -3.30295
rtoes -35.9873
lfemur -69.4464 34.5436 2.84672
ltibia 99.9532
lfoot -36.9569 -8.44151
ltoes -23.881
1992
root -3.72177 11.2325 -16.6649 -155.837 79.3126 -164.868
lowerback 17.1886 6.65133 1.61542
upperback -3.40384 8.98497 -2.32717
thorax -12.7708 3.95751 -5.95538
lowerneck -0.985426 12.2009 4.32826
upperneck 8.57698 16.569 -2.4464
head 3.58113 8.31146 -0.873902
rclavicle 1.50082e-014 1.35174e-014
rhumerus -22.8855 57.0992 -86.4628
rradius 113.538
rwrist 9.82295
rhand -22.2481 -24.438
rfingers 7.12502
rthumb 4.16919 -54.377
lclavicle 1.50082e-014 1.35174e-014
lhumerus -10.4414 14.3445 60.9252
lradius 111.38
lwrist 41.4919
lhand -30.3633 14.1801
lfingers 7.12502
lthumb -3.66835 44.1282
rfemur -48.4953 -42.1513 -7.24735
rtibia 99.0864
rfoot -36.9976 -3.15727
rtoes -36.0801
lfemur -69.7104 34.5955 2.81217
ltibia 100.269
lfoot -36.9866 -8.43754
ltoes -23.7465
1993
root -3.72241 11.2076 -16.6724 -155.483 79.3454 -164.538
lowerback 17.2234 6.65347 1.60948
upperback -3.40507 8.9914 -2.28335
thorax -12.8005 3.96067 -5.91108
lowerneck -0.92746 12.2102 4.29429
upperneck 8.48186 16.5822 -2.48612
head 3.53826 8.31612 -0.888331
rclavicle -2.9768e-014 2.5842e-014
rhumerus -22.7725 57.1883 -86.3043
rradius 113.525
rwrist 9.73454
rhand -22.1189 -24.2747
rfingers 7.12502
rthumb 4.29399 -54.2111
lclavicle -2.9768e-014 2.5842e-014
lhumerus -10.5088 14.3835 61.0163
lradius 111.411
lwrist 41.1569
lhand -30.311 14.0564
lfingers 7.12502
lthumb -3.61776 44.0054
rfemur -48.6425 -42.2594 -7.26779
rtibia 99.2661
rfoot -37.0694 -3.0552
rtoes -36.1816
lfemur -69.8969 34.687 2.86049
ltibia 100.555
lfoot -37.0202 -8.41856
ltoes -23.6345
1994
root -3.72368 11.1836 -16.6796 -154.633 79.3554 -163.714
lowerback 17.269 6.65596 1.76131
upperback -3.4161 9.03085 -2.26284
thorax -12.816 3.96705 -5.98845
lowerneck -0.814473 12.1488 4.36837
upperneck 8.29677 16.5 -2.60124
head 3.46879 8.27487 -0.954049
rclavicle 5.397e-014 -9.14409e-015
rhumerus -22.6624 57.1825 -86.1894
rradius 113.465
rwrist 9.73068
rhand -22.0589 -24.2292
rfingers 7.12502
rthumb 4.35189 -54.1645
lclavicle 5.397e-014 -9.14409e-015
lhumerus -10.5149 14.3565 61.0803
lradius 111.447
lwrist 40.8435
lhand -30.3105 14.0776
lfingers 7.12502
lthumb -3.61729 44.0267
rfemur -48.8188 -42.3487 -7.14606
rtibia 99.4373
rfoot -37.134 -2.97805
rtoes -36.2613
lfemur -70.086 34.8198 3.00854
ltibia 100.839
lfoot -37.0856 -8.25905
ltoes -23.7267
1995
root -3.72496 11.1596 -16.6859 -154.339 79.3709 -163.447
lowerback 17.3232 6.63825 1.79283
upperback -3.41981 9.01608 -2.24874
thorax -12.8511 3.95578 -5.99481
lowerneck -0.83293 12.1647 4.35334
upperneck 8.24203 16.5147 -2.58104
head 3.44996 8.28145 -0.945742
rclavicle 3.0265e-014 -4.77083e-015
rhumerus -22.5024 57.2543 -86.0427
rradius 113.426
rwrist 9.7975
rhand -22.0363 -24.2782
rfingers 7.12502
rthumb 4.37373 -54.213
lclavicle 3.0265e-014 -4.77083e-015
lhumerus -10.5455 14.3918 61.111
lradius 111.467
lwrist 40.594
lhand -30.2912 14.0082
lfingers 7.12502
lthumb -3.59867 43.9576
rfemur -48.9591 -42.4784 -7.16789
rtibia 99.609
rfoot -37.1853 -2.90875
rtoes -36.331
lfemur -70.2937 34.8999 3.02632
ltibia 101.112
lfoot -37.1479 -8.08196
ltoes -23.8269
1996
root -3.72593 11.1356 -16.6919 -153.677 79.372 -162.761
lowerback 17.4103 6.62528 1.91679
upperback -3.41345 9.02998 -2.21925
thorax -12.8793 3.95172 -6.0452
lowerneck -0.924451 12.2326 4.27373
upperneck 8.26382 16.5951 -2.47019
head 3.45793 8.32065 -0.888687
rclavicle 1.88597e-013 -2.34566e-014
rhumerus -22.549 57.2325 -86.0026
rradius 113.491
rwrist 9.93001
rhand -21.9996 -24.0415
rfingers 7.12502
rthumb 4.40913 -53.9756
lclavicle 1.88597e-013 -2.34566e-014
lhumerus -10.5541 14.3836 61.1319
lradius 111.499
lwrist 40.5117
lhand -30.3428 13.9516
lfingers 7.12502
lthumb -3.64854 43.9001
rfemur -49.0415 -42.5467 -7.12287
rtibia 99.7714
rfoot -37.2591 -2.85435
rtoes -36.4506
lfemur -70.4375 35.0205 3.16425
ltibia 101.39
lfoot -37.2515 -7.9012
ltoes -23.9648
1997
root -3.72775 11.1113 -16.6979 -153.046 79.3502 -162.154
lowerback 17.4519 6.5911 2.04268
upperback -3.41568 9.01618 -2.18787
thorax -12.8933 3.93578 -6.0815
lowerneck -0.954744 12.2876 4.23088
upperneck 8.2127 16.6619 -2.43865
head 3.44057 8.35244 -0.869248
rclavicle 1.75427e-014 1.19271e-014
rhumerus -22.2593 57.3888 -85.7772
rradius 113.407
rwrist 9.9523
rhand -22.1315 -24.2436
rfingers 7.12502
rthumb 4.28176 -54.1804
lclavicle 1.75427e-014 1.19271e-014
lhumerus -10.5881 14.4178 61.1557
lradius 111.559
lwrist 40.4911
lhand -30.3791 14.0377
lfingers 7.12502
lthumb -3.68356 43.9857
rfemur -49.1792 -42.684 -7.05392
rtibia 99.944
rfoot -37.3291 -2.80496
rtoes -36.6065
lfemur -70.6624 35.1202 3.26776
ltibia 101.664
lfoot -37.3071 -7.83296
ltoes -24.0173
1998
root -3.72909 11.0876 -16.7032 -152.446 79.3512 -161.562
lowerback 17.5038 6.56761 2.13584
upperback -3.41284 9.00932 -2.15828
thorax -12.9117 3.92519 -6.10491
lowerneck -0.952968 12.3091 4.21628
upperneck 8.12831 16.6843 -2.42938
head 3.40913 8.36273 -0.866661
rclavicle -1.23743e-014 -7.55382e-015
rhumerus -22.1351 57.4599 -85.6394
rradius 113.38
rwrist 9.96117
rhand -22.1902 -24.1693
rfingers 7.12502
rthumb 4.22514 -54.1071
lclavicle -1.23743e-014 -7.55382e-015
lhumerus -10.6159 14.4508 61.1656
lradius 111.612
lwrist 40.5824
lhand -30.341 14.0207
lfingers 7.12502
lthumb -3.6468 43.9692
rfemur -49.3106 -42.7928 -6.99537
rtibia 100.108
rfoot -37.391 -2.81366
rtoes -36.7926
lfemur -70.8454 35.2575 3.37383
ltibia 101.927
lfoot -37.3619 -7.77916
ltoes -24.1004
1999
root -3.73087 11.0654 -16.7069 -151.922 79.3221 -161.058
lowerback 17.5631 6.55455 2.28905
upperback -3.41222 9.02773 -2.15043
thorax -12.9214 3.92134 -6.19247
lowerneck -0.950514 12.3491 4.28414
upperneck 8.03092 16.737 -2.52367
head 3.39361 8.38694 -0.906641
rclavicle -1.94312e-014 -1.23246e-014
rhumerus -22.0028 57.4379 -85.4314
rradius 113.424
rwrist 9.94342
rhand -22.2253 -24.1999
rfingers 7.12502
rthumb 4.19125 -54.1384
lclavicle -1.94312e-014 -1.23246e-014
lhumerus -10.5047 14.3839 61.1759
lradius 111.602
lwrist 40.7905
lhand -30.3541 14.0765
lfingers 7.12502
lthumb -3.6594 44.0248
rfemur -49.4428 -42.9407 -6.93296
rtibia 100.274
rfoot -37.4457 -2.7318
rtoes -36.8753
lfemur -71.0446 35.3301 3.48289
ltibia 102.17
lfoot -37.3734 -7.81357
ltoes -23.9822
